<?xml version="1.0" encoding="UTF-8"?>
<!DOCTYPE svg PUBLIC "-//W3C//DTD SVG 1.1//EN" "http://www.w3.org/Graphics/SVG/1.1/DTD/svg11.dtd">
<!-- Creator: CorelDRAW X7 -->
<svg xmlns="http://www.w3.org/2000/svg" xml:space="preserve" version="1.1" style="shape-rendering:geometricPrecision; text-rendering:geometricPrecision; image-rendering:optimizeQuality; fill-rule:evenodd; clip-rule:evenodd"
viewBox="0 0 16653 8019"
 xmlns:xlink="http://www.w3.org/1999/xlink">
 <defs>
  <style type="text/css">
   <![CDATA[
    .fil0 {fill:#FEFEFE}
    .fil1 {fill:#FEFEFE;fill-rule:nonzero}
   ]]>
  </style>
 </defs>
 <g id="Capa_x0020_1">
  <metadata id="CorelCorpID_0Corel-Layer"/>
  <path class="fil0" d="M2954 4202l-113 116c157,2 245,1 399,37 833,197 1307,1068 1025,1851 -241,672 -918,1059 -1615,925 -108,-21 -227,-61 -329,-108 -583,-284 -765,-733 -816,-1368 -176,212 -354,308 -488,690 -37,106 -13,126 31,225 28,63 66,136 100,196 82,141 163,227 249,348l-133 198 237 220 195 -147 169 120 -66 226 295 143 130 -203 201 62 4 250 321 36 70 -228 210 1 72 226 321 -45 3 -241 201 -57 140 199 287 -142 -72 -230 175 -120 192 145 237 -213 -132 -199 135 -167 217 89 167 -281 -183 -151 77 -199 247 17 70 -303 -222 -95 18 -216 237 -68 -16 -315 -244 -12 -47 -224 210 -115 -120 -299 -229 52 -117 -200 161 -173 -173 -244 -226 113 -167 -162 99 -207 -259 -180 -164 169 -206 -97 29 -240 -246 -75c-45,56 -79,126 -123,186 -127,169 -269,340 -425,484z"/>
  <path class="fil0" d="M2943 5420c3,-21 5,-47 1,-73l-101 -1c-52,225 -244,349 -457,195 -42,-302 297,-448 441,-383 49,14 109,39 144,70 65,-14 62,10 134,-31 86,-80 63,-163 -13,-233 495,-29 895,1074 544,1149 -265,55 -585,-192 -690,-233 -123,432 -286,422 -643,344 -50,165 -48,242 -297,354 25,40 100,94 146,113 90,-13 210,-180 255,-261 349,25 471,-51 626,-265 187,65 512,245 755,89 212,-136 179,-535 108,-748 -81,-242 -213,-408 -394,-567 -172,-151 -518,-276 -663,-31 -121,1 -150,-21 -273,34 -418,187 -391,634 -312,696 238,188 632,129 689,-218z"/>
  <path class="fil0" d="M3289 5313c-21,-35 -100,-47 -140,-15 -21,17 -32,75 -18,101 56,107 236,43 158,-86z"/>
  <g id="_870942688">
   <path class="fil0" d="M977 6949c-704,-893 575,-1608 1543,-2667 782,-812 999,-949 888,-2036 -167,1496 -4401,3484 -2431,4703z"/>
   <path class="fil0" d="M408 6244c-464,-1009 1294,-2203 1939,-2909 674,-701 1274,-1051 1056,-2235 -167,1496 -4393,3523 -2995,5144z"/>
   <path class="fil0" d="M120 5160c-178,-1009 1497,-2162 2142,-2868 674,-700 1375,-1206 1149,-2292 -167,1496 -4144,3244 -3291,5160z"/>
  </g>
  <path class="fil1" d="M6074 6576l0 -1306 1212 0 0 150 -1021 0 0 383 618 0 0 151 -618 0 0 622 -191 0zm1182 0l0 -1013 188 0 0 1013 -188 0zm603 0l0 -1010 98 0 757 710 0 -710 183 0 0 1010 -98 0 -757 -707 0 707 -183 0zm1650 -390l466 0 -231 -387 -235 387zm-432 390l607 -1010 117 0 611 1010 -199 0 -155 -256 -630 0 -154 256 -197 0zm1516 0l0 -1010 98 0 757 710 0 -710 183 0 0 1010 -98 0 -757 -707 0 707 -183 0zm2708 -247c-68,91 -157,160 -267,207 -111,48 -236,72 -377,72 -209,0 -382,-50 -518,-151 -135,-100 -203,-228 -203,-382 0,-155 68,-283 203,-384 136,-101 309,-152 518,-152 131,0 249,21 355,62 106,41 192,100 257,176l-148 87c-49,-58 -114,-102 -195,-133 -80,-31 -170,-47 -268,-47 -153,0 -280,37 -380,111 -100,74 -150,166 -150,277 0,111 50,204 151,277 100,74 226,111 379,111 105,0 199,-18 280,-53 81,-35 152,-90 214,-165l149 87zm316 247l0 -1013 189 0 0 1013 -189 0zm804 -390l467 0 -232 -387 -235 387zm-432 390l607 -1010 117 0 612 1010 -200 0 -155 -256 -630 0 -154 256 -197 0zm1513 0l0 -1010 186 0 0 865 887 0 0 145 -1073 0z"/>
  <path class="fil1" d="M6075 4752l0 -3131 415 0 0 2763 1540 0 0 368 -1955 0zm2106 0l1202 -3131 455 0 1275 3131 -472 0 -362 -949 -1319 0 -339 949 -440 0zm901 -1286l1067 0 -326 -868c-99,-264 -173,-482 -225,-654 -43,204 -100,405 -173,603l-343 919zm2351 1286l0 -3131 621 0 740 2216c69,206 118,361 150,464 35,-114 91,-282 167,-503l754 -2177 555 0 0 3131 -398 0 0 -2620 -914 2620 -374 0 -903 -2668 0 2668 -398 0z"/>
  <path class="fil0" d="M15482 4384l-781 0 0 368 781 0c199,0 368,-18 505,-53 137,-35 252,-86 343,-154 91,-69 168,-166 230,-292 61,-126 93,-262 93,-409 0,-183 -51,-341 -153,-474 -102,-134 -247,-229 -437,-284 147,-73 256,-169 328,-287 72,-118 109,-244 109,-377 0,-145 -41,-282 -123,-414 -82,-132 -195,-229 -339,-293 -145,-63 -337,-94 -576,-94l-761 0 0 367 627 0c225,0 384,15 476,44 93,29 164,84 214,163 50,79 75,170 75,275 0,110 -27,201 -80,274 -53,73 -133,125 -238,156 -80,24 -212,37 -395,37l-679 0 0 367 726 0c199,0 352,18 458,53 106,35 189,95 249,182 60,87 90,188 90,305 0,100 -20,188 -62,265 -41,76 -94,135 -158,175 -64,40 -144,68 -239,85 -55,10 -149,15 -283,15z"/>
 </g>
</svg>
