<?xml version="1.0" encoding="UTF-8"?>
<!DOCTYPE svg PUBLIC "-//W3C//DTD SVG 1.1//EN" "http://www.w3.org/Graphics/SVG/1.1/DTD/svg11.dtd">
<!-- Creator: CorelDRAW X8 -->
<svg xmlns="http://www.w3.org/2000/svg" xml:space="preserve" version="1.1" style="shape-rendering:geometricPrecision; text-rendering:geometricPrecision; image-rendering:optimizeQuality; fill-rule:evenodd; clip-rule:evenodd"
viewBox="0 0 21505 8362"
 xmlns:xlink="http://www.w3.org/1999/xlink">
 <defs>
  <style type="text/css">
   <![CDATA[
    .fil0 {fill:#FEFEFE}
    .fil1 {fill:#FEFEFE;fill-rule:nonzero}
   ]]>
  </style>
 </defs>
 <g id="Capa_x0020_1">
  <metadata id="CorelCorpID_0Corel-Layer"/>
  <path class="fil0" d="M8130 4214c0,366 46,657 137,873 59,-285 89,-580 89,-883 0,-321 -36,-636 -101,-939 -83,206 -125,523 -125,949z"/>
  <path class="fil1" d="M9548 5693l0 -3030 170 0 656 2380 0 -2380 158 0 0 3030 -170 0 -656 -2378 0 2378 -158 0zm1271 0l0 -3030 844 0 0 355 -676 0 0 944 586 0 0 355 -586 0 0 1376 -168 0zm1087 0l0 -3030 168 0 0 3030 -168 0zm1044 -1190l0 -353 530 0 0 1121c-81,158 -166,275 -253,356 -87,78 -176,117 -266,117 -122,0 -235,-63 -334,-190 -101,-127 -178,-313 -228,-554 -51,-240 -77,-509 -77,-806 0,-295 26,-572 77,-826 50,-257 123,-447 220,-570 95,-123 204,-186 329,-186 91,0 172,37 245,107 75,71 131,170 174,297 40,126 72,291 93,495l-150 99c-18,-153 -40,-274 -69,-363 -28,-89 -68,-158 -119,-212 -52,-53 -109,-79 -172,-79 -76,0 -141,28 -198,83 -54,56 -99,129 -133,222 -32,91 -58,190 -77,299 -32,188 -48,392 -48,610 0,271 18,497 56,681 39,182 95,317 168,406 75,87 152,131 234,131 71,0 142,-32 211,-101 66,-66 119,-137 153,-214l0 -570 -366 0zm1592 -1840l168 0 0 1749c0,306 -14,548 -42,728 -31,178 -81,323 -156,436 -73,111 -170,168 -291,168 -117,0 -212,-49 -287,-146 -74,-99 -127,-240 -159,-426 -33,-184 -49,-438 -49,-760l0 -1749 168 0 0 1749c0,263 10,459 30,582 20,126 55,223 103,289 49,67 109,101 180,101 121,0 208,-66 259,-200 52,-133 76,-390 76,-772l0 -1749zm447 3030l0 -3030 556 0c111,0 196,28 254,83 57,54 103,149 138,287 34,137 52,290 52,456 0,216 -28,396 -87,544 -56,147 -145,240 -265,280 43,51 77,103 99,152 49,107 95,242 138,404l216 824 -206 0 -166 -630c-48,-182 -89,-321 -119,-418 -32,-97 -61,-164 -85,-202 -24,-39 -50,-65 -75,-81 -18,-10 -50,-14 -92,-14l-192 0 0 1345 -166 0zm166 -1693l355 0c77,0 136,-18 178,-56 42,-39 75,-99 97,-182 22,-83 32,-174 32,-273 0,-141 -20,-260 -62,-353 -45,-91 -111,-138 -204,-138l-396 0 0 1002zm955 1693l481 -3030 182 0 509 3030 -188 0 -145 -917 -528 0 -135 917 -176 0zm360 -1244l428 0 -131 -841c-39,-254 -69,-464 -89,-632 -18,198 -40,392 -71,584l-137 889zm1834 182l168 101c-36,329 -97,579 -188,753 -91,172 -200,259 -331,259 -134,0 -243,-67 -327,-200 -85,-131 -150,-325 -192,-576 -45,-253 -67,-523 -67,-812 0,-315 24,-590 75,-824 48,-237 119,-415 212,-536 91,-123 192,-184 303,-184 125,0 230,77 315,233 85,153 145,369 178,650l-162 93c-30,-220 -71,-382 -127,-481 -55,-101 -123,-151 -208,-151 -95,0 -176,54 -241,167 -64,112 -109,261 -135,449 -26,188 -38,382 -38,582 0,256 14,483 46,675 30,192 79,335 144,430 64,95 135,143 212,143 93,0 169,-66 234,-194 65,-131 107,-323 129,-577zm400 1062l0 -3030 166 0 0 3030 -166 0zm1815 0l0 -3030 169 0 657 2380 0 -2380 160 0 0 3030 -170 0 -657 -2378 0 2378 -159 0zm-1409 -1475c0,-501 57,-895 168,-1179 111,-285 257,-427 433,-427 115,0 220,67 313,200 91,134 161,322 212,560 48,238 73,509 73,812 0,307 -27,582 -77,822 -53,243 -125,427 -218,552 -95,123 -196,186 -306,186 -117,0 -222,-69 -315,-206 -93,-138 -163,-326 -210,-564 -48,-238 -73,-489 -73,-756zm172 9c0,363 41,650 121,860 81,210 182,315 305,315 126,0 227,-107 308,-319 80,-210 121,-511 121,-901 0,-246 -18,-461 -53,-644 -34,-184 -85,-326 -149,-427 -67,-101 -142,-151 -224,-151 -118,0 -219,97 -302,293 -84,194 -127,517 -127,974zm301 -1750l111 -580 202 0 -185 580 -128 0z"/>
  <path class="fil0" d="M6035 6095c-477,235 -687,-295 -996,-553 -37,-30 -45,-30 -75,-65l-198 -208 -135 -143c-27,-27 -43,-45 -67,-71 -28,-28 -49,-36 -77,-63 -91,-87 -178,-188 -264,-281l-136 -141 -143 -135c-81,-87 -184,-206 -265,-277l570 -574 143 135c29,49 130,138 176,184l186 186c69,69 309,327 372,362 50,109 1018,970 1093,1139 42,101 38,212 -10,307 -73,148 -134,152 -174,198zm430 -1123c-54,-259 -81,-535 -81,-830 0,-324 31,-606 91,-847 61,-240 148,-422 259,-547 111,-126 234,-188 368,-188 153,0 280,79 383,238 105,158 178,380 219,665l-198 97c-35,-226 -87,-392 -154,-493 -67,-103 -151,-156 -252,-156 -118,0 -217,57 -293,172 -79,113 -134,269 -166,461 -32,192 -49,390 -49,596 0,262 21,493 57,689 38,198 97,345 176,442 79,97 165,146 258,146 111,0 206,-67 285,-198 79,-134 132,-330 158,-592l202 105c-41,337 -117,594 -226,769 -110,178 -245,267 -402,267 -164,0 -297,-69 -401,-204 -103,-135 -181,-333 -234,-592zm929 -3449c338,406 601,879 766,1394 129,-238 291,-357 485,-357 141,0 269,68 382,206 113,135 198,327 259,572 58,244 88,521 88,832 0,313 -32,596 -95,842 -62,249 -149,437 -264,564 -115,129 -239,192 -370,192 -143,0 -271,-71 -384,-212 -26,-30 -50,-65 -73,-103 -6,-8 -12,-16 -16,-26 -527,1701 -2113,2935 -3986,2935 -1299,0 -2459,-594 -3224,-1525 -162,-194 -305,-402 -431,-624 -317,-564 -507,-1211 -529,-1898 -2,-40 -2,-80 -2,-119l0 -24c0,-568 113,-1107 317,-1600 629,-1511 2118,-2572 3855,-2572 1297,0 2457,592 3222,1523zm554 2134c30,-263 89,-481 172,-661 8,-18 18,-36 26,-52 2,-6 6,-10 8,-17 2,-4 4,-6 6,-10 0,0 0,0 0,0 37,112 67,225 93,338 0,4 2,8 2,10 8,-16 16,-34 24,-51 29,-52 57,-99 87,-139 297,-339 764,-71 764,1095 0,392 -49,695 -143,907 -97,212 -219,319 -366,319 -81,0 -152,-32 -214,-93 -55,-50 -103,-123 -146,-216 -24,115 -54,229 -89,340 0,0 0,0 0,0 -4,-4 -6,-10 -10,-14 2,0 2,0 2,-3 -2,-2 -4,-6 -6,-8 -26,-48 -50,-103 -73,-159 0,0 -2,0 -2,-2 -30,-79 -56,-168 -80,-261 -53,-228 -83,-467 -85,-717 -6,-204 4,-410 28,-606 0,0 0,0 2,0zm-4412 1919c-241,239 -320,291 -629,479 -28,-22 -97,-67 -123,-99 16,-53 152,-333 188,-376 42,-54 103,-95 151,-137 31,-26 39,-45 67,-73 24,-24 49,-42 75,-65 28,-24 56,-44 81,-70 97,-105 137,-121 210,-206 44,-49 101,-83 149,-130 27,-26 37,-46 65,-72 28,-25 48,-43 77,-65 42,24 216,200 246,244 -28,53 -477,487 -557,570zm2 -1568c-77,-70 -348,-432 -497,-190 -45,75 -81,251 -130,299 -60,63 -137,148 -212,203 -42,-19 -361,-352 -404,-392 -107,-110 -212,-211 -319,-320l-77 -78 77 -77 190 -190 103 30c228,55 267,-85 353,-230 83,-138 160,-239 241,-358 44,-12 6,-16 83,-85 115,-101 76,-111 270,-236 358,-230 720,-164 1106,-55l509 158c-259,55 -497,121 -701,240 -95,55 -196,132 -237,241 -48,131 33,287 103,339 14,31 97,95 121,126l-579 575zm1771 245l-181 -186c99,-91 891,-877 915,-925 -22,-47 -43,-63 -87,-91 -44,22 -418,414 -465,460 -85,85 -394,404 -462,455 -47,-24 -116,-95 -144,-141 16,-33 26,-39 55,-67 165,-162 755,-768 848,-847 -24,-36 -58,-62 -87,-93l-456 457c-79,79 -398,408 -459,449 -60,-33 -145,-134 -198,-186 37,-57 140,-142 194,-192l754 -742c66,-62 99,-127 202,-167 285,-116 606,103 687,361 32,107 24,222 -18,319 -63,140 -249,297 -346,394 -91,89 -709,720 -752,742z"/>
 </g>
</svg>
